<svg id="visual" viewBox="0 0 1920 1080" width="1920" height="1080" xmlns="http://www.w3.org/2000/svg" xmlns:xlink="http://www.w3.org/1999/xlink" version="1.1"><g stroke-width="1" stroke-linejoin="bevel"><path d="M956 535L870 595L958 598Z" fill="#d0d9e7" stroke="#d0d9e7"></path><path d="M956 535L845 527L870 595Z" fill="#a1c4de" stroke="#a1c4de"></path><path d="M956 535L884 487L845 527Z" fill="#bfd0e4" stroke="#bfd0e4"></path><path d="M870 595L932 689L958 598Z" fill="#d8dee9" stroke="#d8dee9"></path><path d="M1054 461L967 443L956 535Z" fill="#7eb9d5" stroke="#7eb9d5"></path><path d="M956 535L967 443L884 487Z" fill="#7eb9d5" stroke="#7eb9d5"></path><path d="M763 457L762 536L845 527Z" fill="#b5cce2" stroke="#b5cce2"></path><path d="M845 527L762 536L870 595Z" fill="#abc8e0" stroke="#abc8e0"></path><path d="M870 595L878 727L932 689Z" fill="#71b5d1" stroke="#71b5d1"></path><path d="M763 457L845 527L884 487Z" fill="#7eb9d5" stroke="#7eb9d5"></path><path d="M768 655L878 727L870 595Z" fill="#71b5d1" stroke="#71b5d1"></path><path d="M932 689L1073 628L958 598Z" fill="#b5cce2" stroke="#b5cce2"></path><path d="M958 598L1079 524L956 535Z" fill="#7eb9d5" stroke="#7eb9d5"></path><path d="M1085 722L1073 628L932 689Z" fill="#96c0db" stroke="#96c0db"></path><path d="M1073 628L1079 524L958 598Z" fill="#d8dee9" stroke="#d8dee9"></path><path d="M762 536L768 655L870 595Z" fill="#a1c4de" stroke="#a1c4de"></path><path d="M1079 524L1054 461L956 535Z" fill="#b5cce2" stroke="#b5cce2"></path><path d="M874 370L763 457L884 487Z" fill="#b5cce2" stroke="#b5cce2"></path><path d="M933 354L874 370L967 443Z" fill="#d8dee9" stroke="#d8dee9"></path><path d="M967 443L874 370L884 487Z" fill="#7eb9d5" stroke="#7eb9d5"></path><path d="M879 777L942 776L878 727Z" fill="#96c0db" stroke="#96c0db"></path><path d="M878 727L942 776L932 689Z" fill="#d0d9e7" stroke="#d0d9e7"></path><path d="M1085 722L1117 629L1073 628Z" fill="#c8d5e6" stroke="#c8d5e6"></path><path d="M1073 628L1117 629L1079 524Z" fill="#d8dee9" stroke="#d8dee9"></path><path d="M753 808L879 777L878 727Z" fill="#8abcd8" stroke="#8abcd8"></path><path d="M1077 341L933 354L967 443Z" fill="#abc8e0" stroke="#abc8e0"></path><path d="M686 614L736 688L768 655Z" fill="#b5cce2" stroke="#b5cce2"></path><path d="M768 655L736 688L878 727Z" fill="#c8d5e6" stroke="#c8d5e6"></path><path d="M686 614L768 655L762 536Z" fill="#71b5d1" stroke="#71b5d1"></path><path d="M641 478L687 567L762 536Z" fill="#d8dee9" stroke="#d8dee9"></path><path d="M942 776L1085 722L932 689Z" fill="#b5cce2" stroke="#b5cce2"></path><path d="M687 567L686 614L762 536Z" fill="#d0d9e7" stroke="#d0d9e7"></path><path d="M849 305L779 371L874 370Z" fill="#b5cce2" stroke="#b5cce2"></path><path d="M874 370L779 371L763 457Z" fill="#d8dee9" stroke="#d8dee9"></path><path d="M763 457L641 478L762 536Z" fill="#d8dee9" stroke="#d8dee9"></path><path d="M1079 524L1117 413L1054 461Z" fill="#a1c4de" stroke="#a1c4de"></path><path d="M1054 461L1077 341L967 443Z" fill="#abc8e0" stroke="#abc8e0"></path><path d="M1187 508L1117 413L1079 524Z" fill="#d8dee9" stroke="#d8dee9"></path><path d="M1133 802L1130 727L1085 722Z" fill="#96c0db" stroke="#96c0db"></path><path d="M1085 722L1130 727L1117 629Z" fill="#8abcd8" stroke="#8abcd8"></path><path d="M1117 629L1187 508L1079 524Z" fill="#abc8e0" stroke="#abc8e0"></path><path d="M981 296L849 305L933 354Z" fill="#abc8e0" stroke="#abc8e0"></path><path d="M933 354L849 305L874 370Z" fill="#71b5d1" stroke="#71b5d1"></path><path d="M1271 548L1187 508L1117 629Z" fill="#8abcd8" stroke="#8abcd8"></path><path d="M1137 373L1077 341L1117 413Z" fill="#d8dee9" stroke="#d8dee9"></path><path d="M1117 413L1077 341L1054 461Z" fill="#b5cce2" stroke="#b5cce2"></path><path d="M1077 341L981 296L933 354Z" fill="#7eb9d5" stroke="#7eb9d5"></path><path d="M678 365L763 457L779 371Z" fill="#d0d9e7" stroke="#d0d9e7"></path><path d="M678 365L641 478L763 457Z" fill="#d8dee9" stroke="#d8dee9"></path><path d="M687 567L597 519L686 614Z" fill="#71b5d1" stroke="#71b5d1"></path><path d="M674 755L753 808L736 688Z" fill="#a1c4de" stroke="#a1c4de"></path><path d="M736 688L753 808L878 727Z" fill="#71b5d1" stroke="#71b5d1"></path><path d="M954 899L1078 824L942 776Z" fill="#d0d9e7" stroke="#d0d9e7"></path><path d="M1234 359L1137 373L1117 413Z" fill="#c8d5e6" stroke="#c8d5e6"></path><path d="M954 899L942 776L879 777Z" fill="#7eb9d5" stroke="#7eb9d5"></path><path d="M942 776L1078 824L1085 722Z" fill="#abc8e0" stroke="#abc8e0"></path><path d="M541 660L674 755L686 614Z" fill="#d8dee9" stroke="#d8dee9"></path><path d="M686 614L674 755L736 688Z" fill="#d8dee9" stroke="#d8dee9"></path><path d="M771 277L678 365L779 371Z" fill="#d0d9e7" stroke="#d0d9e7"></path><path d="M674 755L686 787L753 808Z" fill="#c8d5e6" stroke="#c8d5e6"></path><path d="M1078 824L1133 802L1085 722Z" fill="#a1c4de" stroke="#a1c4de"></path><path d="M1130 727L1226 738L1117 629Z" fill="#7eb9d5" stroke="#7eb9d5"></path><path d="M1077 341L1068 285L981 296Z" fill="#71b5d1" stroke="#71b5d1"></path><path d="M871 159L771 277L849 305Z" fill="#8abcd8" stroke="#8abcd8"></path><path d="M1159 296L1068 285L1077 341Z" fill="#bfd0e4" stroke="#bfd0e4"></path><path d="M545 484L597 519L641 478Z" fill="#7eb9d5" stroke="#7eb9d5"></path><path d="M641 478L597 519L687 567Z" fill="#96c0db" stroke="#96c0db"></path><path d="M962 182L849 305L981 296Z" fill="#96c0db" stroke="#96c0db"></path><path d="M849 305L771 277L779 371Z" fill="#71b5d1" stroke="#71b5d1"></path><path d="M804 895L879 777L753 808Z" fill="#96c0db" stroke="#96c0db"></path><path d="M839 932L954 899L879 777Z" fill="#8abcd8" stroke="#8abcd8"></path><path d="M1078 824L1086 887L1133 802Z" fill="#71b5d1" stroke="#71b5d1"></path><path d="M653 875L804 895L753 808Z" fill="#b5cce2" stroke="#b5cce2"></path><path d="M1133 802L1226 738L1130 727Z" fill="#b5cce2" stroke="#b5cce2"></path><path d="M1273 659L1271 548L1117 629Z" fill="#a1c4de" stroke="#a1c4de"></path><path d="M1187 508L1234 359L1117 413Z" fill="#bfd0e4" stroke="#bfd0e4"></path><path d="M954 899L1086 887L1078 824Z" fill="#d0d9e7" stroke="#d0d9e7"></path><path d="M1133 802L1213 829L1226 738Z" fill="#b5cce2" stroke="#b5cce2"></path><path d="M1234 359L1159 296L1137 373Z" fill="#96c0db" stroke="#96c0db"></path><path d="M1137 373L1159 296L1077 341Z" fill="#b5cce2" stroke="#b5cce2"></path><path d="M1226 738L1273 659L1117 629Z" fill="#c8d5e6" stroke="#c8d5e6"></path><path d="M1344 545L1271 467L1271 548Z" fill="#c8d5e6" stroke="#c8d5e6"></path><path d="M1271 548L1271 467L1187 508Z" fill="#d0d9e7" stroke="#d0d9e7"></path><path d="M795 953L839 932L804 895Z" fill="#bfd0e4" stroke="#bfd0e4"></path><path d="M804 895L839 932L879 777Z" fill="#d0d9e7" stroke="#d0d9e7"></path><path d="M954 899L958 961L1086 887Z" fill="#bfd0e4" stroke="#bfd0e4"></path><path d="M1173 196L1041 214L1068 285Z" fill="#abc8e0" stroke="#abc8e0"></path><path d="M1068 285L1041 214L981 296Z" fill="#a1c4de" stroke="#a1c4de"></path><path d="M581 369L545 484L641 478Z" fill="#a1c4de" stroke="#a1c4de"></path><path d="M597 519L541 660L686 614Z" fill="#a1c4de" stroke="#a1c4de"></path><path d="M674 755L599 812L686 787Z" fill="#d0d9e7" stroke="#d0d9e7"></path><path d="M581 369L641 478L678 365Z" fill="#d8dee9" stroke="#d8dee9"></path><path d="M1271 467L1234 359L1187 508Z" fill="#bfd0e4" stroke="#bfd0e4"></path><path d="M758 172L660 280L771 277Z" fill="#d0d9e7" stroke="#d0d9e7"></path><path d="M771 277L660 280L678 365Z" fill="#7eb9d5" stroke="#7eb9d5"></path><path d="M498 540L541 660L597 519Z" fill="#d8dee9" stroke="#d8dee9"></path><path d="M653 875L795 953L804 895Z" fill="#d0d9e7" stroke="#d0d9e7"></path><path d="M660 280L581 369L678 365Z" fill="#abc8e0" stroke="#abc8e0"></path><path d="M1041 214L962 182L981 296Z" fill="#b5cce2" stroke="#b5cce2"></path><path d="M839 932L958 961L954 899Z" fill="#d8dee9" stroke="#d8dee9"></path><path d="M1152 902L1213 829L1133 802Z" fill="#d0d9e7" stroke="#d0d9e7"></path><path d="M1341 688L1334 646L1273 659Z" fill="#96c0db" stroke="#96c0db"></path><path d="M1152 902L1133 802L1086 887Z" fill="#b5cce2" stroke="#b5cce2"></path><path d="M546 732L599 812L674 755Z" fill="#abc8e0" stroke="#abc8e0"></path><path d="M653 875L753 808L686 787Z" fill="#8abcd8" stroke="#8abcd8"></path><path d="M839 932L869 1027L958 961Z" fill="#96c0db" stroke="#96c0db"></path><path d="M599 812L653 875L686 787Z" fill="#71b5d1" stroke="#71b5d1"></path><path d="M541 660L546 732L674 755Z" fill="#abc8e0" stroke="#abc8e0"></path><path d="M1137 1025L1152 902L1086 887Z" fill="#b5cce2" stroke="#b5cce2"></path><path d="M962 182L871 159L849 305Z" fill="#a1c4de" stroke="#a1c4de"></path><path d="M509 443L498 540L545 484Z" fill="#abc8e0" stroke="#abc8e0"></path><path d="M545 484L498 540L597 519Z" fill="#96c0db" stroke="#96c0db"></path><path d="M541 660L491 728L546 732Z" fill="#71b5d1" stroke="#71b5d1"></path><path d="M581 369L509 443L545 484Z" fill="#7eb9d5" stroke="#7eb9d5"></path><path d="M517 331L509 443L581 369Z" fill="#d8dee9" stroke="#d8dee9"></path><path d="M871 159L758 172L771 277Z" fill="#8abcd8" stroke="#8abcd8"></path><path d="M660 280L591 246L581 369Z" fill="#a1c4de" stroke="#a1c4de"></path><path d="M1341 688L1273 659L1226 738Z" fill="#7eb9d5" stroke="#7eb9d5"></path><path d="M1273 659L1334 646L1271 548Z" fill="#d0d9e7" stroke="#d0d9e7"></path><path d="M1271 467L1345 361L1234 359Z" fill="#71b5d1" stroke="#71b5d1"></path><path d="M1334 646L1344 545L1271 548Z" fill="#96c0db" stroke="#96c0db"></path><path d="M1370 840L1341 688L1226 738Z" fill="#d0d9e7" stroke="#d0d9e7"></path><path d="M1334 646L1419 549L1344 545Z" fill="#b5cce2" stroke="#b5cce2"></path><path d="M1267 869L1226 738L1213 829Z" fill="#bfd0e4" stroke="#bfd0e4"></path><path d="M1159 296L1173 196L1068 285Z" fill="#abc8e0" stroke="#abc8e0"></path><path d="M1041 214L1082 104L962 182Z" fill="#7eb9d5" stroke="#7eb9d5"></path><path d="M930 75L852 97L871 159Z" fill="#7eb9d5" stroke="#7eb9d5"></path><path d="M1285 272L1173 196L1159 296Z" fill="#abc8e0" stroke="#abc8e0"></path><path d="M1285 272L1159 296L1234 359Z" fill="#bfd0e4" stroke="#bfd0e4"></path><path d="M447 639L491 728L541 660Z" fill="#a1c4de" stroke="#a1c4de"></path><path d="M546 732L552 864L599 812Z" fill="#b5cce2" stroke="#b5cce2"></path><path d="M599 812L552 864L653 875Z" fill="#96c0db" stroke="#96c0db"></path><path d="M708 155L591 246L660 280Z" fill="#d8dee9" stroke="#d8dee9"></path><path d="M767 1080L869 1027L795 953Z" fill="#7eb9d5" stroke="#7eb9d5"></path><path d="M795 953L869 1027L839 932Z" fill="#71b5d1" stroke="#71b5d1"></path><path d="M958 961L1039 1023L1086 887Z" fill="#8abcd8" stroke="#8abcd8"></path><path d="M758 172L708 155L660 280Z" fill="#96c0db" stroke="#96c0db"></path><path d="M744 92L708 155L758 172Z" fill="#c8d5e6" stroke="#c8d5e6"></path><path d="M591 246L517 331L581 369Z" fill="#71b5d1" stroke="#71b5d1"></path><path d="M410 604L447 639L498 540Z" fill="#d8dee9" stroke="#d8dee9"></path><path d="M1211 988L1267 869L1152 902Z" fill="#8abcd8" stroke="#8abcd8"></path><path d="M1152 902L1267 869L1213 829Z" fill="#c8d5e6" stroke="#c8d5e6"></path><path d="M460 830L552 864L546 732Z" fill="#8abcd8" stroke="#8abcd8"></path><path d="M653 875L682 986L795 953Z" fill="#a1c4de" stroke="#a1c4de"></path><path d="M1419 549L1368 440L1344 545Z" fill="#abc8e0" stroke="#abc8e0"></path><path d="M1344 545L1368 440L1271 467Z" fill="#abc8e0" stroke="#abc8e0"></path><path d="M924 1080L1039 1023L958 961Z" fill="#8abcd8" stroke="#8abcd8"></path><path d="M410 604L498 540L401 531Z" fill="#bfd0e4" stroke="#bfd0e4"></path><path d="M498 540L447 639L541 660Z" fill="#8abcd8" stroke="#8abcd8"></path><path d="M491 728L460 830L546 732Z" fill="#bfd0e4" stroke="#bfd0e4"></path><path d="M1345 361L1285 272L1234 359Z" fill="#bfd0e4" stroke="#bfd0e4"></path><path d="M930 75L871 159L962 182Z" fill="#a1c4de" stroke="#a1c4de"></path><path d="M871 159L852 97L758 172Z" fill="#a1c4de" stroke="#a1c4de"></path><path d="M1368 440L1345 361L1271 467Z" fill="#b5cce2" stroke="#b5cce2"></path><path d="M552 1026L682 986L653 875Z" fill="#96c0db" stroke="#96c0db"></path><path d="M1120 57L1082 104L1173 196Z" fill="#bfd0e4" stroke="#bfd0e4"></path><path d="M1173 196L1082 104L1041 214Z" fill="#71b5d1" stroke="#71b5d1"></path><path d="M1082 104L930 75L962 182Z" fill="#d8dee9" stroke="#d8dee9"></path><path d="M1442 640L1334 646L1341 688Z" fill="#71b5d1" stroke="#71b5d1"></path><path d="M1442 640L1419 549L1334 646Z" fill="#8abcd8" stroke="#8abcd8"></path><path d="M1447 347L1371 292L1345 361Z" fill="#abc8e0" stroke="#abc8e0"></path><path d="M746 0L744 92L852 97Z" fill="#abc8e0" stroke="#abc8e0"></path><path d="M852 97L744 92L758 172Z" fill="#7eb9d5" stroke="#7eb9d5"></path><path d="M708 155L655 118L591 246Z" fill="#71b5d1" stroke="#71b5d1"></path><path d="M401 531L498 540L509 443Z" fill="#d8dee9" stroke="#d8dee9"></path><path d="M447 639L420 732L491 728Z" fill="#a1c4de" stroke="#a1c4de"></path><path d="M1027 1080L1137 1025L1039 1023Z" fill="#96c0db" stroke="#96c0db"></path><path d="M1039 1023L1137 1025L1086 887Z" fill="#d0d9e7" stroke="#d0d9e7"></path><path d="M894 1080L924 1080L869 1027Z" fill="#71b5d1" stroke="#71b5d1"></path><path d="M869 1027L924 1080L958 961Z" fill="#8abcd8" stroke="#8abcd8"></path><path d="M767 1080L894 1080L869 1027Z" fill="#c8d5e6" stroke="#c8d5e6"></path><path d="M1137 1025L1211 988L1152 902Z" fill="#b5cce2" stroke="#b5cce2"></path><path d="M1267 869L1370 840L1226 738Z" fill="#d8dee9" stroke="#d8dee9"></path><path d="M1211 988L1307 901L1267 869Z" fill="#c8d5e6" stroke="#c8d5e6"></path><path d="M419 376L401 531L509 443Z" fill="#d0d9e7" stroke="#d0d9e7"></path><path d="M744 92L655 118L708 155Z" fill="#b5cce2" stroke="#b5cce2"></path><path d="M443 285L419 376L517 331Z" fill="#7eb9d5" stroke="#7eb9d5"></path><path d="M410 604L420 732L447 639Z" fill="#abc8e0" stroke="#abc8e0"></path><path d="M367 835L420 732L262 813Z" fill="#7eb9d5" stroke="#7eb9d5"></path><path d="M924 1080L1027 1080L1039 1023Z" fill="#d0d9e7" stroke="#d0d9e7"></path><path d="M1245 123L1229 148L1319 176Z" fill="#96c0db" stroke="#96c0db"></path><path d="M1285 272L1229 148L1173 196Z" fill="#96c0db" stroke="#96c0db"></path><path d="M420 732L460 830L491 728Z" fill="#96c0db" stroke="#96c0db"></path><path d="M552 864L552 1026L653 875Z" fill="#a1c4de" stroke="#a1c4de"></path><path d="M1307 901L1370 840L1267 869Z" fill="#abc8e0" stroke="#abc8e0"></path><path d="M443 285L517 331L451 212Z" fill="#b5cce2" stroke="#b5cce2"></path><path d="M517 331L419 376L509 443Z" fill="#71b5d1" stroke="#71b5d1"></path><path d="M1450 695L1442 640L1341 688Z" fill="#71b5d1" stroke="#71b5d1"></path><path d="M393 884L476 870L460 830Z" fill="#96c0db" stroke="#96c0db"></path><path d="M460 830L476 870L552 864Z" fill="#d0d9e7" stroke="#d0d9e7"></path><path d="M1345 361L1371 292L1285 272Z" fill="#c8d5e6" stroke="#c8d5e6"></path><path d="M1444 423L1345 361L1368 440Z" fill="#d8dee9" stroke="#d8dee9"></path><path d="M1444 423L1368 440L1419 549Z" fill="#71b5d1" stroke="#71b5d1"></path><path d="M688 1080L767 1080L682 986Z" fill="#8abcd8" stroke="#8abcd8"></path><path d="M682 986L767 1080L795 953Z" fill="#d8dee9" stroke="#d8dee9"></path><path d="M655 118L562 166L591 246Z" fill="#71b5d1" stroke="#71b5d1"></path><path d="M1536 457L1444 423L1419 549Z" fill="#b5cce2" stroke="#b5cce2"></path><path d="M1370 840L1450 695L1341 688Z" fill="#a1c4de" stroke="#a1c4de"></path><path d="M1442 640L1522 574L1419 549Z" fill="#bfd0e4" stroke="#bfd0e4"></path><path d="M451 212L517 331L591 246Z" fill="#d0d9e7" stroke="#d0d9e7"></path><path d="M1229 148L1120 57L1173 196Z" fill="#b5cce2" stroke="#b5cce2"></path><path d="M1054 0L927 0L930 75Z" fill="#c8d5e6" stroke="#c8d5e6"></path><path d="M930 75L882 0L852 97Z" fill="#c8d5e6" stroke="#c8d5e6"></path><path d="M1319 176L1229 148L1285 272Z" fill="#d8dee9" stroke="#d8dee9"></path><path d="M1229 148L1245 123L1120 57Z" fill="#71b5d1" stroke="#71b5d1"></path><path d="M579 1080L688 1080L682 986Z" fill="#7eb9d5" stroke="#7eb9d5"></path><path d="M1428 204L1319 176L1371 292Z" fill="#bfd0e4" stroke="#bfd0e4"></path><path d="M1371 292L1319 176L1285 272Z" fill="#d8dee9" stroke="#d8dee9"></path><path d="M1054 0L930 75L1082 104Z" fill="#8abcd8" stroke="#8abcd8"></path><path d="M744 92L642 0L655 118Z" fill="#c8d5e6" stroke="#c8d5e6"></path><path d="M927 0L882 0L930 75Z" fill="#96c0db" stroke="#96c0db"></path><path d="M485 77L451 212L562 166Z" fill="#8abcd8" stroke="#8abcd8"></path><path d="M1567 378L1447 347L1444 423Z" fill="#96c0db" stroke="#96c0db"></path><path d="M1444 423L1447 347L1345 361Z" fill="#b5cce2" stroke="#b5cce2"></path><path d="M1027 1080L1183 1080L1137 1025Z" fill="#d8dee9" stroke="#d8dee9"></path><path d="M1137 1025L1183 1080L1211 988Z" fill="#abc8e0" stroke="#abc8e0"></path><path d="M1211 988L1375 986L1307 901Z" fill="#8abcd8" stroke="#8abcd8"></path><path d="M1464 934L1453 818L1370 840Z" fill="#d8dee9" stroke="#d8dee9"></path><path d="M419 376L350 439L401 531Z" fill="#d8dee9" stroke="#d8dee9"></path><path d="M401 531L304 607L410 604Z" fill="#bfd0e4" stroke="#bfd0e4"></path><path d="M308 379L350 439L419 376Z" fill="#bfd0e4" stroke="#bfd0e4"></path><path d="M476 870L552 1026L552 864Z" fill="#96c0db" stroke="#96c0db"></path><path d="M1184 0L1054 0L1120 57Z" fill="#b5cce2" stroke="#b5cce2"></path><path d="M1120 57L1054 0L1082 104Z" fill="#7eb9d5" stroke="#7eb9d5"></path><path d="M562 166L451 212L591 246Z" fill="#b5cce2" stroke="#b5cce2"></path><path d="M350 241L308 379L419 376Z" fill="#d8dee9" stroke="#d8dee9"></path><path d="M584 58L562 166L655 118Z" fill="#bfd0e4" stroke="#bfd0e4"></path><path d="M882 0L746 0L852 97Z" fill="#b5cce2" stroke="#b5cce2"></path><path d="M1370 840L1453 818L1450 695Z" fill="#71b5d1" stroke="#71b5d1"></path><path d="M1529 611L1522 574L1442 640Z" fill="#b5cce2" stroke="#b5cce2"></path><path d="M1375 986L1370 840L1307 901Z" fill="#7eb9d5" stroke="#7eb9d5"></path><path d="M1319 176L1316 114L1245 123Z" fill="#c8d5e6" stroke="#c8d5e6"></path><path d="M1245 123L1184 0L1120 57Z" fill="#a1c4de" stroke="#a1c4de"></path><path d="M1428 204L1316 114L1319 176Z" fill="#96c0db" stroke="#96c0db"></path><path d="M1529 611L1442 640L1450 695Z" fill="#abc8e0" stroke="#abc8e0"></path><path d="M642 0L584 58L655 118Z" fill="#b5cce2" stroke="#b5cce2"></path><path d="M1183 1080L1245 1080L1211 988Z" fill="#d8dee9" stroke="#d8dee9"></path><path d="M420 732L367 835L460 830Z" fill="#d8dee9" stroke="#d8dee9"></path><path d="M476 870L456 1025L552 1026Z" fill="#96c0db" stroke="#96c0db"></path><path d="M304 607L420 732L410 604Z" fill="#96c0db" stroke="#96c0db"></path><path d="M367 835L393 884L460 830Z" fill="#d0d9e7" stroke="#d0d9e7"></path><path d="M275 574L304 607L401 531Z" fill="#96c0db" stroke="#96c0db"></path><path d="M514 1080L579 1080L552 1026Z" fill="#8abcd8" stroke="#8abcd8"></path><path d="M552 1026L579 1080L682 986Z" fill="#c8d5e6" stroke="#c8d5e6"></path><path d="M1567 711L1529 611L1450 695Z" fill="#d8dee9" stroke="#d8dee9"></path><path d="M1324 1080L1375 986L1211 988Z" fill="#d0d9e7" stroke="#d0d9e7"></path><path d="M1236 0L1184 0L1245 123Z" fill="#8abcd8" stroke="#8abcd8"></path><path d="M1477 261L1428 204L1371 292Z" fill="#7eb9d5" stroke="#7eb9d5"></path><path d="M1316 114L1236 0L1245 123Z" fill="#a1c4de" stroke="#a1c4de"></path><path d="M1477 261L1371 292L1447 347Z" fill="#bfd0e4" stroke="#bfd0e4"></path><path d="M746 0L642 0L744 92Z" fill="#7eb9d5" stroke="#7eb9d5"></path><path d="M1627 567L1536 457L1522 574Z" fill="#d0d9e7" stroke="#d0d9e7"></path><path d="M1522 574L1536 457L1419 549Z" fill="#bfd0e4" stroke="#bfd0e4"></path><path d="M350 241L419 376L443 285Z" fill="#b5cce2" stroke="#b5cce2"></path><path d="M350 439L275 574L401 531Z" fill="#b5cce2" stroke="#b5cce2"></path><path d="M276 416L275 574L350 439Z" fill="#96c0db" stroke="#96c0db"></path><path d="M304 607L256 686L420 732Z" fill="#7eb9d5" stroke="#7eb9d5"></path><path d="M1536 257L1477 261L1447 347Z" fill="#7eb9d5" stroke="#7eb9d5"></path><path d="M393 884L456 1025L476 870Z" fill="#b5cce2" stroke="#b5cce2"></path><path d="M378 990L456 1025L393 884Z" fill="#c8d5e6" stroke="#c8d5e6"></path><path d="M456 1025L514 1080L552 1026Z" fill="#a1c4de" stroke="#a1c4de"></path><path d="M1317 0L1236 0L1316 114Z" fill="#7eb9d5" stroke="#7eb9d5"></path><path d="M481 0L485 77L584 58Z" fill="#d0d9e7" stroke="#d0d9e7"></path><path d="M584 58L485 77L562 166Z" fill="#a1c4de" stroke="#a1c4de"></path><path d="M451 212L350 241L443 285Z" fill="#8abcd8" stroke="#8abcd8"></path><path d="M384 155L350 241L451 212Z" fill="#bfd0e4" stroke="#bfd0e4"></path><path d="M1245 1080L1324 1080L1211 988Z" fill="#d8dee9" stroke="#d8dee9"></path><path d="M642 0L587 0L584 58Z" fill="#abc8e0" stroke="#abc8e0"></path><path d="M1324 1080L1405 1005L1375 986Z" fill="#c8d5e6" stroke="#c8d5e6"></path><path d="M1375 986L1464 934L1370 840Z" fill="#abc8e0" stroke="#abc8e0"></path><path d="M1453 818L1567 711L1450 695Z" fill="#71b5d1" stroke="#71b5d1"></path><path d="M200 356L276 416L308 379Z" fill="#71b5d1" stroke="#71b5d1"></path><path d="M308 379L276 416L350 439Z" fill="#7eb9d5" stroke="#7eb9d5"></path><path d="M1405 1005L1464 934L1375 986Z" fill="#d0d9e7" stroke="#d0d9e7"></path><path d="M1464 934L1501 885L1453 818Z" fill="#b5cce2" stroke="#b5cce2"></path><path d="M1528 844L1567 711L1453 818Z" fill="#7eb9d5" stroke="#7eb9d5"></path><path d="M1529 611L1600 616L1522 574Z" fill="#bfd0e4" stroke="#bfd0e4"></path><path d="M194 618L304 607L275 574Z" fill="#96c0db" stroke="#96c0db"></path><path d="M194 618L256 686L304 607Z" fill="#8abcd8" stroke="#8abcd8"></path><path d="M285 981L378 990L393 884Z" fill="#c8d5e6" stroke="#c8d5e6"></path><path d="M1501 885L1528 844L1453 818Z" fill="#96c0db" stroke="#96c0db"></path><path d="M485 77L384 155L451 212Z" fill="#d0d9e7" stroke="#d0d9e7"></path><path d="M350 241L274 289L308 379Z" fill="#a1c4de" stroke="#a1c4de"></path><path d="M1635 473L1567 378L1536 457Z" fill="#a1c4de" stroke="#a1c4de"></path><path d="M1536 457L1567 378L1444 423Z" fill="#7eb9d5" stroke="#7eb9d5"></path><path d="M287 867L393 884L367 835Z" fill="#abc8e0" stroke="#abc8e0"></path><path d="M456 1025L418 1080L514 1080Z" fill="#d8dee9" stroke="#d8dee9"></path><path d="M1627 567L1722 592L1694 548Z" fill="#bfd0e4" stroke="#bfd0e4"></path><path d="M1567 711L1600 616L1529 611Z" fill="#bfd0e4" stroke="#bfd0e4"></path><path d="M1567 378L1536 257L1447 347Z" fill="#8abcd8" stroke="#8abcd8"></path><path d="M1477 261L1550 215L1428 204Z" fill="#d8dee9" stroke="#d8dee9"></path><path d="M1423 0L1317 0L1316 114Z" fill="#c8d5e6" stroke="#c8d5e6"></path><path d="M198 486L220 557L275 574Z" fill="#c8d5e6" stroke="#c8d5e6"></path><path d="M262 813L287 867L367 835Z" fill="#c8d5e6" stroke="#c8d5e6"></path><path d="M262 813L420 732L256 686Z" fill="#b5cce2" stroke="#b5cce2"></path><path d="M1449 84L1316 114L1428 204Z" fill="#c8d5e6" stroke="#c8d5e6"></path><path d="M210 816L262 813L256 686Z" fill="#bfd0e4" stroke="#bfd0e4"></path><path d="M278 166L274 289L350 241Z" fill="#8abcd8" stroke="#8abcd8"></path><path d="M276 416L198 486L275 574Z" fill="#d8dee9" stroke="#d8dee9"></path><path d="M1617 734L1600 616L1567 711Z" fill="#c8d5e6" stroke="#c8d5e6"></path><path d="M1600 616L1627 567L1522 574Z" fill="#7eb9d5" stroke="#7eb9d5"></path><path d="M1608 250L1550 215L1536 257Z" fill="#c8d5e6" stroke="#c8d5e6"></path><path d="M308 1080L418 1080L378 990Z" fill="#d8dee9" stroke="#d8dee9"></path><path d="M378 990L418 1080L456 1025Z" fill="#d8dee9" stroke="#d8dee9"></path><path d="M587 0L481 0L584 58Z" fill="#96c0db" stroke="#96c0db"></path><path d="M485 77L376 66L384 155Z" fill="#d8dee9" stroke="#d8dee9"></path><path d="M384 155L278 166L350 241Z" fill="#8abcd8" stroke="#8abcd8"></path><path d="M1499 117L1449 84L1428 204Z" fill="#bfd0e4" stroke="#bfd0e4"></path><path d="M1655 830L1617 734L1528 844Z" fill="#d8dee9" stroke="#d8dee9"></path><path d="M1528 844L1617 734L1567 711Z" fill="#c8d5e6" stroke="#c8d5e6"></path><path d="M1597 934L1528 844L1501 885Z" fill="#7eb9d5" stroke="#7eb9d5"></path><path d="M200 356L198 486L276 416Z" fill="#b5cce2" stroke="#b5cce2"></path><path d="M220 557L194 618L275 574Z" fill="#96c0db" stroke="#96c0db"></path><path d="M90 542L194 618L220 557Z" fill="#d8dee9" stroke="#d8dee9"></path><path d="M1694 548L1635 473L1627 567Z" fill="#d0d9e7" stroke="#d0d9e7"></path><path d="M1627 567L1635 473L1536 457Z" fill="#b5cce2" stroke="#b5cce2"></path><path d="M1536 257L1550 215L1477 261Z" fill="#96c0db" stroke="#96c0db"></path><path d="M1621 362L1536 257L1567 378Z" fill="#a1c4de" stroke="#a1c4de"></path><path d="M1500 1080L1563 973L1464 934Z" fill="#d0d9e7" stroke="#d0d9e7"></path><path d="M1464 934L1563 973L1501 885Z" fill="#71b5d1" stroke="#71b5d1"></path><path d="M1324 1080L1432 1080L1405 1005Z" fill="#bfd0e4" stroke="#bfd0e4"></path><path d="M1635 473L1621 362L1567 378Z" fill="#bfd0e4" stroke="#bfd0e4"></path><path d="M403 0L376 66L485 77Z" fill="#d0d9e7" stroke="#d0d9e7"></path><path d="M1550 215L1499 117L1428 204Z" fill="#8abcd8" stroke="#8abcd8"></path><path d="M274 289L200 356L308 379Z" fill="#d8dee9" stroke="#d8dee9"></path><path d="M123 684L163 699L194 618Z" fill="#71b5d1" stroke="#71b5d1"></path><path d="M200 273L200 356L274 289Z" fill="#71b5d1" stroke="#71b5d1"></path><path d="M262 813L210 816L287 867Z" fill="#71b5d1" stroke="#71b5d1"></path><path d="M287 867L285 981L393 884Z" fill="#a1c4de" stroke="#a1c4de"></path><path d="M163 699L210 816L256 686Z" fill="#a1c4de" stroke="#a1c4de"></path><path d="M321 68L278 166L384 155Z" fill="#abc8e0" stroke="#abc8e0"></path><path d="M188 922L285 981L287 867Z" fill="#71b5d1" stroke="#71b5d1"></path><path d="M1546 0L1423 0L1449 84Z" fill="#d0d9e7" stroke="#d0d9e7"></path><path d="M1449 84L1423 0L1316 114Z" fill="#8abcd8" stroke="#8abcd8"></path><path d="M1639 203L1750 259L1691 187Z" fill="#96c0db" stroke="#96c0db"></path><path d="M1621 362L1608 250L1536 257Z" fill="#abc8e0" stroke="#abc8e0"></path><path d="M1550 215L1622 115L1499 117Z" fill="#abc8e0" stroke="#abc8e0"></path><path d="M1499 117L1546 0L1449 84Z" fill="#7eb9d5" stroke="#7eb9d5"></path><path d="M123 684L194 618L91 639Z" fill="#abc8e0" stroke="#abc8e0"></path><path d="M194 618L163 699L256 686Z" fill="#8abcd8" stroke="#8abcd8"></path><path d="M1500 1080L1464 934L1405 1005Z" fill="#8abcd8" stroke="#8abcd8"></path><path d="M481 0L403 0L485 77Z" fill="#96c0db" stroke="#96c0db"></path><path d="M376 66L321 68L384 155Z" fill="#8abcd8" stroke="#8abcd8"></path><path d="M278 166L200 273L274 289Z" fill="#d8dee9" stroke="#d8dee9"></path><path d="M90 542L220 557L198 486Z" fill="#b5cce2" stroke="#b5cce2"></path><path d="M1563 973L1597 934L1501 885Z" fill="#b5cce2" stroke="#b5cce2"></path><path d="M324 0L321 68L376 66Z" fill="#d0d9e7" stroke="#d0d9e7"></path><path d="M278 166L163 193L200 273Z" fill="#d0d9e7" stroke="#d0d9e7"></path><path d="M1432 1080L1500 1080L1405 1005Z" fill="#a1c4de" stroke="#a1c4de"></path><path d="M1563 973L1604 954L1597 934Z" fill="#d8dee9" stroke="#d8dee9"></path><path d="M1722 592L1627 567L1600 616Z" fill="#d0d9e7" stroke="#d0d9e7"></path><path d="M1635 473L1714 423L1621 362Z" fill="#96c0db" stroke="#96c0db"></path><path d="M1722 592L1600 616L1617 734Z" fill="#abc8e0" stroke="#abc8e0"></path><path d="M1597 934L1655 830L1528 844Z" fill="#8abcd8" stroke="#8abcd8"></path><path d="M1623 1080L1604 954L1563 973Z" fill="#7eb9d5" stroke="#7eb9d5"></path><path d="M1597 934L1744 935L1655 830Z" fill="#bfd0e4" stroke="#bfd0e4"></path><path d="M188 922L287 867L210 816Z" fill="#c8d5e6" stroke="#c8d5e6"></path><path d="M186 1080L308 1080L285 981Z" fill="#abc8e0" stroke="#abc8e0"></path><path d="M285 981L308 1080L378 990Z" fill="#c8d5e6" stroke="#c8d5e6"></path><path d="M133 381L198 486L200 356Z" fill="#7eb9d5" stroke="#7eb9d5"></path><path d="M163 699L77 829L210 816Z" fill="#71b5d1" stroke="#71b5d1"></path><path d="M128 247L133 381L200 273Z" fill="#71b5d1" stroke="#71b5d1"></path><path d="M200 273L133 381L200 356Z" fill="#d8dee9" stroke="#d8dee9"></path><path d="M1764 738L1722 592L1617 734Z" fill="#96c0db" stroke="#96c0db"></path><path d="M1727 364L1608 250L1621 362Z" fill="#7eb9d5" stroke="#7eb9d5"></path><path d="M77 829L188 922L210 816Z" fill="#8abcd8" stroke="#8abcd8"></path><path d="M1714 423L1635 473L1694 548Z" fill="#a1c4de" stroke="#a1c4de"></path><path d="M1608 250L1639 203L1550 215Z" fill="#96c0db" stroke="#96c0db"></path><path d="M1815 435L1714 423L1694 548Z" fill="#b5cce2" stroke="#b5cce2"></path><path d="M403 0L324 0L376 66Z" fill="#c8d5e6" stroke="#c8d5e6"></path><path d="M166 52L163 193L278 166Z" fill="#c8d5e6" stroke="#c8d5e6"></path><path d="M59 425L90 542L198 486Z" fill="#7eb9d5" stroke="#7eb9d5"></path><path d="M90 542L91 639L194 618Z" fill="#c8d5e6" stroke="#c8d5e6"></path><path d="M67 907L169 956L188 922Z" fill="#7eb9d5" stroke="#7eb9d5"></path><path d="M1818 396L1727 364L1714 423Z" fill="#8abcd8" stroke="#8abcd8"></path><path d="M1714 423L1727 364L1621 362Z" fill="#c8d5e6" stroke="#c8d5e6"></path><path d="M1691 187L1622 115L1639 203Z" fill="#abc8e0" stroke="#abc8e0"></path><path d="M1639 203L1622 115L1550 215Z" fill="#71b5d1" stroke="#71b5d1"></path><path d="M166 52L278 166L321 68Z" fill="#a1c4de" stroke="#a1c4de"></path><path d="M133 381L59 425L198 486Z" fill="#96c0db" stroke="#96c0db"></path><path d="M77 829L163 699L123 684Z" fill="#abc8e0" stroke="#abc8e0"></path><path d="M188 922L169 956L285 981Z" fill="#7eb9d5" stroke="#7eb9d5"></path><path d="M1622 115L1546 0L1499 117Z" fill="#a1c4de" stroke="#a1c4de"></path><path d="M163 193L128 247L200 273Z" fill="#abc8e0" stroke="#abc8e0"></path><path d="M1750 259L1639 203L1608 250Z" fill="#bfd0e4" stroke="#bfd0e4"></path><path d="M1622 115L1602 0L1546 0Z" fill="#71b5d1" stroke="#71b5d1"></path><path d="M1754 839L1764 738L1655 830Z" fill="#bfd0e4" stroke="#bfd0e4"></path><path d="M1655 830L1764 738L1617 734Z" fill="#a1c4de" stroke="#a1c4de"></path><path d="M1722 592L1820 567L1694 548Z" fill="#abc8e0" stroke="#abc8e0"></path><path d="M0 366L59 425L133 381Z" fill="#d0d9e7" stroke="#d0d9e7"></path><path d="M90 542L0 606L91 639Z" fill="#a1c4de" stroke="#a1c4de"></path><path d="M1500 1080L1623 1080L1563 973Z" fill="#8abcd8" stroke="#8abcd8"></path><path d="M1744 935L1754 839L1655 830Z" fill="#8abcd8" stroke="#8abcd8"></path><path d="M0 694L77 829L123 684Z" fill="#c8d5e6" stroke="#c8d5e6"></path><path d="M0 694L123 684L91 639Z" fill="#d0d9e7" stroke="#d0d9e7"></path><path d="M1744 935L1597 934L1604 954Z" fill="#d8dee9" stroke="#d8dee9"></path><path d="M1835 288L1750 259L1727 364Z" fill="#bfd0e4" stroke="#bfd0e4"></path><path d="M1727 364L1750 259L1608 250Z" fill="#8abcd8" stroke="#8abcd8"></path><path d="M1694 71L1602 0L1622 115Z" fill="#7eb9d5" stroke="#7eb9d5"></path><path d="M61 1080L186 1080L169 956Z" fill="#d0d9e7" stroke="#d0d9e7"></path><path d="M169 956L186 1080L285 981Z" fill="#7eb9d5" stroke="#7eb9d5"></path><path d="M1694 71L1622 115L1691 187Z" fill="#8abcd8" stroke="#8abcd8"></path><path d="M1854 741L1808 659L1764 738Z" fill="#b5cce2" stroke="#b5cce2"></path><path d="M1764 738L1808 659L1722 592Z" fill="#abc8e0" stroke="#abc8e0"></path><path d="M1808 659L1820 567L1722 592Z" fill="#7eb9d5" stroke="#7eb9d5"></path><path d="M1762 984L1744 935L1604 954Z" fill="#d0d9e7" stroke="#d0d9e7"></path><path d="M1754 839L1835 806L1764 738Z" fill="#a1c4de" stroke="#a1c4de"></path><path d="M163 193L101 159L128 247Z" fill="#71b5d1" stroke="#71b5d1"></path><path d="M0 366L0 438L59 425Z" fill="#bfd0e4" stroke="#bfd0e4"></path><path d="M324 0L166 52L321 68Z" fill="#abc8e0" stroke="#abc8e0"></path><path d="M1820 567L1815 435L1694 548Z" fill="#bfd0e4" stroke="#bfd0e4"></path><path d="M110 113L101 159L163 193Z" fill="#bfd0e4" stroke="#bfd0e4"></path><path d="M0 823L67 907L77 829Z" fill="#a1c4de" stroke="#a1c4de"></path><path d="M77 829L67 907L188 922Z" fill="#a1c4de" stroke="#a1c4de"></path><path d="M0 527L90 542L59 425Z" fill="#bfd0e4" stroke="#bfd0e4"></path><path d="M0 527L0 606L90 542Z" fill="#96c0db" stroke="#96c0db"></path><path d="M0 438L0 527L59 425Z" fill="#c8d5e6" stroke="#c8d5e6"></path><path d="M1920 365L1818 396L1815 435Z" fill="#7eb9d5" stroke="#7eb9d5"></path><path d="M1815 435L1818 396L1714 423Z" fill="#a1c4de" stroke="#a1c4de"></path><path d="M0 606L0 694L91 639Z" fill="#8abcd8" stroke="#8abcd8"></path><path d="M1833 150L1694 71L1691 187Z" fill="#c8d5e6" stroke="#c8d5e6"></path><path d="M1833 150L1691 187L1750 259Z" fill="#96c0db" stroke="#96c0db"></path><path d="M0 366L133 381L0 272Z" fill="#c8d5e6" stroke="#c8d5e6"></path><path d="M166 52L110 113L163 193Z" fill="#a1c4de" stroke="#a1c4de"></path><path d="M0 272L133 381L128 247Z" fill="#c8d5e6" stroke="#c8d5e6"></path><path d="M0 911L75 955L67 907Z" fill="#7eb9d5" stroke="#7eb9d5"></path><path d="M67 907L75 955L169 956Z" fill="#7eb9d5" stroke="#7eb9d5"></path><path d="M0 272L128 247L0 193Z" fill="#8abcd8" stroke="#8abcd8"></path><path d="M1708 1080L1762 984L1604 954Z" fill="#8abcd8" stroke="#8abcd8"></path><path d="M1744 935L1800 907L1754 839Z" fill="#7eb9d5" stroke="#7eb9d5"></path><path d="M1623 1080L1708 1080L1604 954Z" fill="#d8dee9" stroke="#d8dee9"></path><path d="M1762 984L1800 907L1744 935Z" fill="#71b5d1" stroke="#71b5d1"></path><path d="M1808 659L1920 596L1820 567Z" fill="#d8dee9" stroke="#d8dee9"></path><path d="M166 52L66 0L110 113Z" fill="#71b5d1" stroke="#71b5d1"></path><path d="M0 193L128 247L101 159Z" fill="#a1c4de" stroke="#a1c4de"></path><path d="M324 0L155 0L166 52Z" fill="#bfd0e4" stroke="#bfd0e4"></path><path d="M0 694L0 823L77 829Z" fill="#7eb9d5" stroke="#7eb9d5"></path><path d="M1800 907L1835 806L1754 839Z" fill="#abc8e0" stroke="#abc8e0"></path><path d="M1920 365L1835 288L1818 396Z" fill="#8abcd8" stroke="#8abcd8"></path><path d="M1835 806L1854 741L1764 738Z" fill="#96c0db" stroke="#96c0db"></path><path d="M0 193L101 159L0 58Z" fill="#8abcd8" stroke="#8abcd8"></path><path d="M1920 481L1815 435L1820 567Z" fill="#c8d5e6" stroke="#c8d5e6"></path><path d="M1818 396L1835 288L1727 364Z" fill="#bfd0e4" stroke="#bfd0e4"></path><path d="M0 823L0 911L67 907Z" fill="#b5cce2" stroke="#b5cce2"></path><path d="M75 955L61 1080L169 956Z" fill="#bfd0e4" stroke="#bfd0e4"></path><path d="M1851 87L1723 0L1694 71Z" fill="#96c0db" stroke="#96c0db"></path><path d="M1694 71L1723 0L1602 0Z" fill="#8abcd8" stroke="#8abcd8"></path><path d="M0 58L101 159L110 113Z" fill="#a1c4de" stroke="#a1c4de"></path><path d="M0 966L61 1080L75 955Z" fill="#abc8e0" stroke="#abc8e0"></path><path d="M0 911L0 966L75 955Z" fill="#d0d9e7" stroke="#d0d9e7"></path><path d="M1920 732L1808 659L1854 741Z" fill="#abc8e0" stroke="#abc8e0"></path><path d="M1920 732L1920 596L1808 659Z" fill="#96c0db" stroke="#96c0db"></path><path d="M1920 732L1854 741L1920 843Z" fill="#abc8e0" stroke="#abc8e0"></path><path d="M1920 596L1920 529L1820 567Z" fill="#a1c4de" stroke="#a1c4de"></path><path d="M1920 142L1833 150L1835 288Z" fill="#7eb9d5" stroke="#7eb9d5"></path><path d="M1835 288L1833 150L1750 259Z" fill="#71b5d1" stroke="#71b5d1"></path><path d="M1920 529L1920 481L1820 567Z" fill="#d0d9e7" stroke="#d0d9e7"></path><path d="M1920 843L1835 806L1920 877Z" fill="#71b5d1" stroke="#71b5d1"></path><path d="M1920 843L1854 741L1835 806Z" fill="#d0d9e7" stroke="#d0d9e7"></path><path d="M1840 1023L1800 907L1762 984Z" fill="#d8dee9" stroke="#d8dee9"></path><path d="M155 0L66 0L166 52Z" fill="#d8dee9" stroke="#d8dee9"></path><path d="M1920 481L1920 365L1815 435Z" fill="#d0d9e7" stroke="#d0d9e7"></path><path d="M1708 1080L1840 1023L1762 984Z" fill="#c8d5e6" stroke="#c8d5e6"></path><path d="M1920 365L1920 307L1835 288Z" fill="#abc8e0" stroke="#abc8e0"></path><path d="M1920 877L1835 806L1800 907Z" fill="#b5cce2" stroke="#b5cce2"></path><path d="M66 0L0 58L110 113Z" fill="#71b5d1" stroke="#71b5d1"></path><path d="M0 966L0 1080L61 1080Z" fill="#7eb9d5" stroke="#7eb9d5"></path><path d="M1920 989L1920 877L1800 907Z" fill="#c8d5e6" stroke="#c8d5e6"></path><path d="M1920 117L1851 87L1833 150Z" fill="#b5cce2" stroke="#b5cce2"></path><path d="M1833 150L1851 87L1694 71Z" fill="#bfd0e4" stroke="#bfd0e4"></path><path d="M1708 1080L1854 1080L1840 1023Z" fill="#7eb9d5" stroke="#7eb9d5"></path><path d="M1840 1023L1920 989L1800 907Z" fill="#d0d9e7" stroke="#d0d9e7"></path><path d="M66 0L0 0L0 58Z" fill="#abc8e0" stroke="#abc8e0"></path><path d="M1920 1080L1920 989L1840 1023Z" fill="#c8d5e6" stroke="#c8d5e6"></path><path d="M1920 307L1920 142L1835 288Z" fill="#71b5d1" stroke="#71b5d1"></path><path d="M1920 142L1920 117L1833 150Z" fill="#8abcd8" stroke="#8abcd8"></path><path d="M1851 87L1861 0L1723 0Z" fill="#abc8e0" stroke="#abc8e0"></path><path d="M1920 0L1861 0L1851 87Z" fill="#a1c4de" stroke="#a1c4de"></path><path d="M1854 1080L1920 1080L1840 1023Z" fill="#abc8e0" stroke="#abc8e0"></path><path d="M1920 117L1920 0L1851 87Z" fill="#d8dee9" stroke="#d8dee9"></path></g></svg>